<svg width="35" height="36" viewBox="0 0 35 36" fill="none" xmlns="http://www.w3.org/2000/svg">
<rect y="0.34375" width="35" height="35" rx="5" fill="#4F4F4F"/>
<path d="M24.28 29.1838V28.2377C24.28 27.9723 24.1231 27.7347 23.886 27.6402C21.1041 26.5341 18.0159 25.1604 17.7564 24.3045V23.4065C18.3335 22.7991 18.7886 21.9514 19.058 20.9595C19.1397 20.0865 19.3305 19.5513 19.3305 18.8501V16.8395C19.3305 14.7644 18.2075 13.3438 15.6403 13.3438C13.1393 13.3438 11.9488 14.7644 11.9488 16.8395V18.8506C11.9488 19.5513 12.0135 20.1935 12.2212 20.959C12.4906 21.9514 12.9461 22.7986 13.5235 23.4065V24.3045C13.2647 25.1593 10.1758 26.5336 7.39398 27.6402C7.15691 27.7352 7 27.9723 7 28.2377V29.1838" fill="#BDBDBD"/>
<path d="M25.0892 10.4014H27.6241V11.3058H25.0892V13.9298H24.1721V11.3058H21.6372V10.4014H24.1721V7.7646H25.0892V10.4014Z" fill="#BDBDBD"/>
</svg>
